<svg viewBox="0 0 250 250" xmlns="http://www.w3.org/2000/svg" xml:space="preserve" style="fill-rule:evenodd;clip-rule:evenodd;stroke-linecap:round;stroke-linejoin:round;stroke-miterlimit:1.5"><path d="M259.07 12.67c9.33-2.14 20.66-1.6 26.26 1.33 2 1.07 5.2 3.73 7.2 6 6.14 7.47 4 19.6-3.86 21.87-4.8 1.33-9.07-2.14-12-9.87-3.47-9.07-8.8-12.67-18.8-12.53-19.47.4-30.27 14.26-37.87 48.8a6257.1 6257.1 0 0 1-11.33 46.26c-.94 3.74-7.34 28.14-13.34 51.07-14.53 54.53-29.6 80.8-52.4 91.47-10.26 4.93-25.86 5.06-35.2.53-16.53-8.13-22-26.27-11.06-37.2 5.06-5.07 10.66-5.73 14.93-1.73 5.73 5.33 5.47 15.2-.4 19.86-4.4 3.47-3.6 8.14 2 12 4.93 3.47 16 5.74 21.07 4.27 14-4 21.2-13.2 28.8-36.8 4.53-13.87 22.26-79.33 29.06-106.67 7.2-29.6 7.47-30.53 12.8-43.86 12.4-31.34 30.27-49.47 54.14-54.8Z" style="fill-rule:nonzero" transform="translate(-68.54 -11.13)"/><path d="M72.28 100.87c-10.56-.9-7.36 5.73.1 7.52 8.37 2.02 78.17 7.05 82.45 5.51 4.77-1.72 3.18-4.87-9.65-6.42-9.58-1.16-63.13-5.79-72.9-6.61Z" style="stroke:#000;stroke-width:1px" transform="rotate(-3.81 125.75 -229.94)"/><path d="M72.23 100.35c-10.55-1.02-7.31 6.25.15 8.05 8.37 2 78.17 7.04 82.45 5.5 4.77-1.72-2.67-5.51-11.53-7.56-9.4-2.18-61.67-5.07-71.07-5.99Z" style="stroke:#000;stroke-width:1.07px" transform="matrix(-.96381 -.08413 -.07823 .89618 240.45 45.72)"/></svg>